<svg xmlns="http://www.w3.org/2000/svg" width="80" height="100" viewBox="0 0 37 37">
  <g id="Grupo_25" data-name="Grupo 25" transform="translate(-127.963 -686.468)">
    <g id="Grupo_24" data-name="Grupo 24" transform="translate(136.088 701.205)">
      <g id="icon_white">
        <path id="Caminho_7" data-name="Caminho 7" d="M502.511-110.429v2.818h1.32a1.262,1.262,0,0,0,1.334-1.422,1.237,1.237,0,0,0-1.308-1.4H502.51Z" transform="translate(-502.51 110.43)" fill="#000"/>
      </g>
    </g>
    <path id="Caminho_422" data-name="Caminho 422" d="M443.7-213.981a.729.729,0,0,1,.692.866h3.835a2.59,2.59,0,0,1,2.806,2.717,2.34,2.34,0,0,1-1.5,2.374V-208a1.046,1.046,0,0,1,.447.456l.873,1.734a.485.485,0,0,0,.291.254h3.486c.664,0,1.253-.356,1.253-1.032,0-1.486-4.1-1.362-4.1-4.079a2.628,2.628,0,0,1,2.9-2.454h6.316l1.852,4.294c.217.522.447,1.208.447,1.208h.023s.231-.685.445-1.208l1.853-4.29h1.728l.582,7.325a.262.262,0,0,0,.076.2.262.262,0,0,0,.2.076h.625c.14-.3.306-.615.521-.983l3.789-6.392-6.392-3.789c-2.287-1.362-2.5-2.236-1.8-2.734,1.33-.934,2.473-.479,3.257-2.438a3.26,3.26,0,0,0-1.565-4.045,3.258,3.258,0,0,0-4.3.568c-1.343,1.627-.4,2.414-.578,4.024-.1.859-.969,1.091-3.261-.268l-6.392-3.791-3.791,6.39c-1.359,2.3-2.233,2.508-2.731,1.8-.935-1.329-.48-2.471-2.439-3.255a3.262,3.262,0,0,0-4.045,1.564,3.257,3.257,0,0,0,.567,4.3C441.3-213.217,442.087-214.162,443.7-213.981Z" transform="translate(-310.584 912.911)" fill="#000"/>
    <path id="Caminho_423" data-name="Caminho 423" d="M480.618-101.371c-1.629-1.344-2.414-.4-4.028-.579a.725.725,0,0,1-.689-.864h-1.228c-.6,0-.8-.254-.851-.864l-.306-4.012a12.571,12.571,0,0,1-.014-1.4h-.023a14.684,14.684,0,0,1-.5,1.4l-1.5,3.328h-1.347l-1.5-3.328a14.63,14.63,0,0,1-.494-1.406h-.028a13.408,13.408,0,0,1-.01,1.409l-.295,4.012c-.051.61-.266.864-.861.864h-1.437v-1.414h.4a.254.254,0,0,0,.206-.074.254.254,0,0,0,.073-.206l.469-5.861h-4.473c-.737,0-1.277.381-1.277.932,0,1.486,4.1,1.19,4.1,4.055a2.623,2.623,0,0,1-2.873,2.565h-3.849c-.675,0-.967-.1-1.261-.672l-1.153-2.274c-.191-.356-.381-.42-.851-.42h-.838v3.366H452.52v-7.605h-1.057c-.14.3-.3.615-.522.983l-3.791,6.395,6.392,3.789c2.287,1.359,2.5,2.233,1.8,2.732-1.328.932-2.47.478-3.255,2.438a3.258,3.258,0,0,0,1.565,4.041,3.262,3.262,0,0,0,4.3-.567c1.343-1.627.4-2.414.581-4.027.1-.855.964-1.09,3.257.271l6.394,3.791,3.789-6.392c1.359-2.287,2.235-2.505,2.73-1.8.936,1.329.481,2.47,2.441,3.26a3.26,3.26,0,0,0,4.042-1.564A3.27,3.27,0,0,0,480.618-101.371Z" transform="translate(-318.094 811.626)" fill="#000"/>
  </g>
</svg>
